<?xml version="1.0" encoding="UTF-8"?>
<svg width="100" height="100" version="1.1" viewBox="0 0 26.458 26.458" xmlns="http://www.w3.org/2000/svg">
 <g transform="translate(-1.8778 -4.219)">
  <g transform="matrix(1.9364 0 0 1.9364 -25.825 -82.763)" style="shape-inside:url(#rect20);white-space:pre" aria-label="(/)">
   <path d="m16.236 51.769q0 1.3017 0.5715 2.2648 0.58208 0.9525 1.5981 1.5452l-0.60325 0.80433q-1.4393-0.79375-2.1061-1.9791-0.66675-1.1853-0.66675-2.6352 0-1.4605 0.68792-2.6776 0.68791-1.2277 2.1272-2.0214l0.60325 0.80433q-1.016 0.59266-1.6192 1.5875-0.59266 0.99483-0.59266 2.3072z" fill="#000000"/>
   <path d="m20.385 56.33h-1.3547l2.9633-9.144h1.3335z" fill="#00839a"/>
   <path d="m26.142 51.769q0-1.3123-0.60325-2.3072-0.59266-0.99483-1.6087-1.5875l0.60325-0.80433q1.4393 0.79375 2.1272 2.0214 0.68791 1.2171 0.68791 2.6776 0 1.4499-0.66675 2.6352-0.66675 1.1853-2.1061 1.9791l-0.60325-0.80433q1.016-0.59266 1.5875-1.5452 0.58208-0.96308 0.58208-2.2648z" fill="#000000"/>
  </g>
 </g>
</svg>
